<?xml version="1.0" standalone="no"?>
<!DOCTYPE svg PUBLIC "-//W3C//DTD SVG 20010904//EN"
 "http://www.w3.org/TR/2001/REC-SVG-20010904/DTD/svg10.dtd">
<svg version="1.0" xmlns="http://www.w3.org/2000/svg"
 width="500.000000pt" height="500.000000pt" viewBox="0 0 500.000000 500.000000"
 preserveAspectRatio="xMidYMid meet">
<metadata>
Created by potrace 1.14, written by Peter Selinger 2001-2017
</metadata>
<g transform="translate(0.000000,500.000000) scale(0.100000,-0.100000)"
fill="#000000" stroke="none">
<path d="M2034 3120 c-30 -12 -37 -26 -22 -49 10 -16 4 -46 -38 -182 -30 -100
-58 -174 -72 -191 -31 -36 -22 -40 99 -36 l94 3 -3 32 c-3 31 26 142 48 183
10 19 50 29 50 13 0 -4 -12 -41 -27 -83 -33 -94 -28 -125 24 -146 43 -18 90
-12 127 17 28 22 37 65 11 55 -20 -7 -19 6 5 82 27 87 26 127 -5 157 -30 31
-76 33 -128 5 -20 -11 -37 -18 -37 -16 0 2 7 23 15 46 18 51 19 92 3 108 -14
14 -112 15 -144 2z"/>
<path d="M1644 3071 c-110 -50 -175 -237 -116 -333 66 -107 256 -105 333 3 17
24 20 36 12 48 -18 28 -44 24 -82 -12 -45 -44 -82 -55 -106 -31 -33 33 0 188
52 246 9 10 29 18 44 18 23 0 32 -8 48 -38 42 -83 77 -77 110 20 27 79 26 86
-5 94 -18 5 -34 0 -52 -13 -27 -20 -28 -20 -62 -2 -45 24 -123 24 -176 0z"/>
<path d="M3483 3083 c-9 -3 -11 -17 -8 -41 7 -48 -66 -306 -95 -337 -37 -40
-27 -45 84 -45 58 0 108 4 111 10 3 5 1 18 -4 28 -7 13 -5 37 7 80 l16 62 57
0 57 0 -19 -62 c-11 -36 -29 -70 -42 -80 -38 -29 -10 -39 99 -36 l99 3 -3 35
c-4 53 74 321 99 342 12 10 19 24 15 33 -4 12 -25 15 -99 15 -99 0 -123 -9
-106 -41 6 -13 4 -37 -7 -79 l-17 -60 -54 0 c-29 0 -53 4 -53 8 0 27 32 108
50 127 12 13 19 28 15 34 -6 11 -177 14 -202 4z"/>
<path d="M2513 2990 c-32 -10 -63 -43 -63 -67 0 -41 92 -60 123 -25 10 10 17
26 17 35 0 9 7 17 15 17 18 0 20 -47 4 -83 -10 -22 -13 -23 -58 -14 -102 21
-181 -24 -181 -103 0 -31 6 -47 26 -65 35 -33 109 -35 147 -4 l27 20 22 -20
c38 -36 145 -20 162 24 11 30 7 45 -10 38 -14 -5 -16 -2 -11 18 29 127 30 140
21 166 -14 41 -65 65 -142 69 -37 2 -81 -1 -99 -6z m67 -201 c0 -20 -21 -49
-35 -49 -21 0 -27 17 -15 40 11 21 50 28 50 9z"/>
<path d="M2882 2989 c-37 -11 -50 -32 -33 -53 16 -19 -42 -213 -71 -238 -33
-29 -12 -38 92 -38 100 0 122 8 100 35 -9 10 -6 31 10 87 25 83 44 118 65 118
20 0 19 -25 -5 -88 -25 -65 -26 -114 -2 -134 42 -38 136 -29 167 15 19 27 19
51 1 44 -24 -10 -24 2 0 81 27 87 28 101 13 135 -27 60 -113 62 -176 4 -19
-17 -23 -18 -23 -4 0 39 -66 56 -138 36z"/>
<path d="M3935 2765 c-44 -43 -21 -105 39 -105 58 0 90 59 55 103 -26 34 -62
35 -94 2z"/>
<path d="M3006 2545 c-54 -19 -63 -30 -43 -53 9 -10 17 -25 17 -34 0 -8 -30
-114 -66 -234 -51 -171 -71 -224 -91 -242 -47 -43 -27 -52 114 -52 141 0 166
7 146 40 -17 26 -16 42 3 112 14 50 20 58 40 58 28 0 29 -11 8 -74 -25 -74 4
-123 84 -141 79 -17 172 32 172 90 0 22 -3 25 -21 20 -20 -7 -21 -5 -14 42 5
41 3 53 -15 75 -12 16 -35 30 -56 34 -27 5 -34 10 -28 23 3 9 9 24 11 34 7 23
16 22 28 -5 12 -28 53 -43 89 -34 71 18 89 94 36 148 -29 28 -35 30 -86 26
-65 -6 -85 -22 -129 -106 -21 -40 -37 -58 -52 -60 -13 -2 -23 0 -23 5 0 4 18
67 40 138 22 72 40 136 40 143 0 7 -11 24 -25 37 -20 21 -34 25 -82 25 -32 -1
-75 -7 -97 -15z"/>
<path d="M1340 2491 c-12 -8 -13 -16 -3 -41 10 -27 4 -55 -48 -237 -50 -175
-63 -210 -86 -228 -17 -15 -24 -27 -20 -38 6 -15 26 -17 152 -17 161 0 174 5
136 57 -19 27 -20 30 -4 84 l16 56 94 6 c170 10 262 80 270 204 3 45 0 65 -16
90 -38 61 -64 68 -281 71 -116 1 -201 -1 -210 -7z m301 -92 c21 -39 -19 -156
-60 -179 -22 -11 -71 -14 -71 -4 0 4 12 51 27 105 l28 99 32 0 c23 0 36 -6 44
-21z"/>
<path d="M1965 2361 c-49 -22 -67 -43 -67 -78 0 -37 35 -63 86 -63 53 0 84 22
92 66 5 25 11 34 23 32 19 -4 21 -76 3 -120 -10 -25 -14 -26 -44 -17 -18 5
-62 9 -98 9 -114 0 -175 -50 -175 -142 0 -45 4 -53 37 -84 33 -29 45 -34 88
-34 55 0 107 18 128 43 12 15 16 14 36 -10 19 -22 34 -27 84 -31 72 -5 122 19
142 67 14 36 5 58 -16 40 -26 -21 -26 -3 1 97 23 83 25 103 16 135 -13 45 -57
84 -109 99 -61 16 -181 12 -227 -9z m105 -246 c0 -3 -7 -21 -14 -40 -12 -27
-21 -35 -40 -35 -20 0 -26 5 -26 22 0 29 28 58 57 58 12 0 23 -2 23 -5z"/>
<path d="M2461 2366 c-47 -17 -60 -39 -37 -64 17 -19 16 -25 -24 -158 -31
-101 -49 -145 -67 -162 -14 -13 -22 -29 -19 -37 8 -21 278 -22 295 -1 10 11 7
17 -10 30 -27 18 -24 38 21 184 19 63 37 102 45 102 7 0 23 -15 34 -34 23 -37
39 -46 80 -46 39 0 69 25 82 69 30 100 -82 169 -173 107 l-35 -23 -21 23 c-17
20 -30 24 -79 23 -32 0 -73 -6 -92 -13z"/>
</g>
</svg>
